<svg width="24" height="24" viewBox="0 0 24 24" fill="none" xmlns="http://www.w3.org/2000/svg">
<rect width="24" height="24" rx="5" fill="#141414"/>
<path d="M19.4136 8.52031C19.2245 7.71653 18.572 7.12078 17.7777 7.03567C15.8959 6.82764 14.0046 6.82764 12.1134 6.82764C10.2221 6.82764 8.32139 6.82764 6.44905 7.03567C5.65473 7.12078 5.00225 7.71653 4.81312 8.52031C4.54834 9.66452 4.54834 10.9222 4.54834 12.0948C4.54834 13.2768 4.54834 14.525 4.81312 15.6692C5.00225 16.473 5.65473 17.0688 6.44905 17.1539C8.32139 17.3619 10.2221 17.3619 12.1134 17.3619C14.0046 17.3619 15.9053 17.3619 17.7777 17.1539C18.572 17.0688 19.2245 16.473 19.4136 15.6692C19.6784 14.525 19.6784 13.2674 19.6784 12.0948C19.6784 10.9222 19.6784 9.66452 19.4136 8.52031ZM10.5152 14.1657V9.96712L14.5152 12.0664L10.5152 14.1657Z" fill="white"/>
</svg>
