<svg width="24" height="24" viewBox="0 0 24 24" fill="none" xmlns="http://www.w3.org/2000/svg">
<rect width="24" height="24" rx="5" fill="#141414"/>
<path fill-rule="evenodd" clip-rule="evenodd" d="M11.8111 17.4466H12.8891C12.8891 17.4466 13.22 17.4088 13.3808 17.2291C13.5321 17.0684 13.5321 16.7563 13.5321 16.7563C13.5321 16.7563 13.5132 15.3001 14.1846 15.092C14.8465 14.884 15.707 16.4915 16.6054 17.1157C17.2862 17.5885 17.8063 17.4844 17.8063 17.4844L20.2271 17.4466C20.2271 17.4466 21.4943 17.371 20.8891 16.3781C20.8418 16.293 20.5392 15.6405 19.0924 14.2977C17.5794 12.8887 17.778 13.1157 19.603 10.6854C20.7189 9.20076 21.1633 8.29296 21.0215 7.90525C20.8891 7.53646 20.0664 7.63102 20.0664 7.63102L17.343 7.64993C17.343 7.64993 17.1444 7.62156 16.9931 7.71613C16.8512 7.80123 16.7567 8.00927 16.7567 8.00927C16.7567 8.00927 16.3217 9.15348 15.7543 10.1369C14.5439 12.1984 14.0522 12.3024 13.8536 12.1795C13.3902 11.8769 13.5037 10.9785 13.5037 10.345C13.5037 8.3497 13.8063 7.51755 12.9174 7.30005C12.6243 7.2244 12.4068 7.17712 11.6503 7.17712C10.6763 7.16766 9.85361 7.17712 9.39025 7.40407C9.07819 7.55537 8.84178 7.8958 8.98363 7.91471C9.1633 7.94308 9.56991 8.02818 9.78741 8.32133C10.0711 8.69958 10.0522 9.55064 10.0522 9.55064C10.0522 9.55064 10.2129 11.8958 9.67394 12.1889C9.30514 12.3875 8.80396 11.9809 7.72595 10.1086C7.16803 9.15348 6.75195 8.09438 6.75195 8.09438C6.75195 8.09438 6.66684 7.8958 6.525 7.79178C6.35478 7.65939 6.10892 7.62156 6.10892 7.62156L3.51791 7.64048C3.51791 7.64048 3.1302 7.64993 2.98835 7.82015C2.86542 7.97145 2.9789 8.2835 2.9789 8.2835C2.9789 8.2835 5.00255 13.0211 7.30042 15.4135C9.41862 17.5885 11.8111 17.4466 11.8111 17.4466Z" fill="white"/>
</svg>
